<?xml version="1.0" encoding="utf-8"?>
<!-- Generator: Adobe Illustrator 24.0.1, SVG Export Plug-In . SVG Version: 6.00 Build 0)  -->
<svg version="1.1" id="Layer_1" xmlns="http://www.w3.org/2000/svg" xmlns:xlink="http://www.w3.org/1999/xlink" x="0px" y="0px"
	 viewBox="0 0 77 75" style="enable-background:new 0 0 77 75;" xml:space="preserve">
<path d="M39.6,75C61.8,75,77,63.5,77,46.6v-5.4C77,31.7,72.3,27,62.8,27H41.2c-6.7,0-11.3,4.2-11.3,10.3s4.6,10.3,11.3,10.3h11.3
	v1.5c0,2.9-5.1,4.9-12.4,4.9C30,54,23.5,47.5,23.5,37.5S30,21,40.2,21c2.8,0,5.3,0.5,11.9,2.4c1.8,0.5,3.5,0.9,5.2,0.9
	c6.1,0,11-4.9,11-11c0-2.2-0.6-4.1-1.8-5.7C62.9,2.6,53.7,0,39.6,0C16.2,0,0,15.3,0,37.5S16.2,75,39.6,75z"/>
</svg>
